_________________________  Visit us at _________________________
     
http://p2pdl.com  ____________________________  http://p2pdl.com

 
http://www.shotpix.com/images/44297487221248995043.png


Tulisa - Sight Of You {M4A+MP4} (1080p) x264 [VX] [P2PDL]


                               1080p Full HD MP4 Video
                                          +
                               128 Kbps/VBR M4A Audio

General
Complete name                  : Tulisa - Sight Of You (1080p) x264 [VX] [P2PDL].mp4
Format                         : MPEG-4
Format profile                 : Base Media / Version 2
Codec ID                       : mp42
File size                      : 37.1 MiB
Duration                       : 3mn 58s
Overall bit rate mode          : Variable
Overall bit rate               : 1 306 Kbps

Video
ID                             : 1
Format                         : AVC
Format/Info                    : Advanced Video Codec
Width                          : 1 920 pixels
Height                         : 1 080 pixels
Display aspect ratio           : 16:9
Frame rate                     : 25.000 fps
Color space                    : YUV
Chroma subsampling             : 4:2:0
Bit depth                      : 8 bits
Scan type                      : Progressive
Bits/(Pixel*Frame)             : 0.023
Stream size                    : 33.4 MiB (90%)
Writing library                : x264 core 128

Audio
ID                             : 2
Format                         : AAC
Format/Info                    : Advanced Audio Codec
Format profile                 : LC
Codec ID                       : 40
Duration                       : 3mn 58s
Bit rate mode                  : Variable
Bit rate                       : 126 Kbps
Channel(s)                     : 2 channels
Channel positions              : Front: L R
Sampling rate                  : 48.0 KHz
Stream size                    : 3.58 MiB (10%)

Subtitles                      : No

Screens:
 
http://www.shotpix.com/images/66664012899443587827.jpg 
http://www.shotpix.com/images/86241185038714940337.jpg

Thumbs:
 
http://www.shotpix.com/images/77422312010097425862.jpg

------------------------------------------------------------------------

Notes:

* Recommended to use latest version VLC Media Player.
* Install shark007 codecs in case of any kind of problem in playback (For non-VLC Media Player users).
* Alternatively, install Core AVC codecs, the fastest decoder that there is coupled with Community Center Codec Pack and play on Windows Media Player Classic.

Greets to: VYTO, a2zRG, stumpie1971, Sheychi, staff members at ExtraTorrent, TPB,KAT, 1337x, PublicHD, Ahashare, TorrentMafia, Limetorrents, BTScene, P2PDL, and all others

Encoder Notes: Looking For Early Access To Anything You Can Provide DVDScr, R5, DVDRips, BluRay, Direct Audio, Early Music
Releases, Seedboxes, Links, Dedicated Servers anything u can provide, Advance / Promo CDs/DVDs. If You Got anything to
offer contact me at "prg@hush.com"

Facebook Fan Page: www . facebook . com / p2pdl